<!-- ðŸŒº ë°”ë¡œê½ƒë°°ë‹¬ SVG ë¡œê³  ëª¨ìŒ -->
<!-- ì´ íŒŒì¼ì—ëŠ” ì—¬ëŸ¬ ë²„ì „ì˜ ë¡œê³ ê°€ ìžˆì–´ìš”. ë§ˆìŒì— ë“œëŠ” ê²ƒì„ ì„ íƒí•˜ì„¸ìš”! -->

<!-- ë²„ì „ 1: ì‹¬í”Œí•œ ê½ƒ ë¡œê³  -->
<svg id="logo-v1" width="180" height="50" viewBox="0 0 180 50" xmlns="http://www.w3.org/2000/svg">
  <!-- ê½ƒìžŽ -->
  <g transform="translate(25, 25)">
    <!-- 5ê°œì˜ ê½ƒìžŽ -->
    <circle cx="0" cy="-10" r="8" fill="#FF6B9D" opacity="0.9"/>
    <circle cx="9.5" cy="-3" r="8" fill="#FFC0CB" opacity="0.9"/>
    <circle cx="6" cy="8" r="8" fill="#FF6B9D" opacity="0.9"/>
    <circle cx="-6" cy="8" r="8" fill="#FFC0CB" opacity="0.9"/>
    <circle cx="-9.5" cy="-3" r="8" fill="#FF6B9D" opacity="0.9"/>
    <!-- ì¤‘ì•™ -->
    <circle cx="0" cy="0" r="6" fill="#FFE4E1"/>
  </g>
  
  <!-- í…ìŠ¤íŠ¸ -->
  <text x="55" y="32" font-family="Arial, sans-serif" font-size="20" font-weight="bold" fill="#FF6B9D">ë°”ë¡œê½ƒë°°ë‹¬</text>
</svg>

<!-- ë²„ì „ 2: ê·¸ë¼ë””ì–¸íŠ¸ ê½ƒ ë¡œê³  -->
<svg id="logo-v2" width="180" height="50" viewBox="0 0 180 50" xmlns="http://www.w3.org/2000/svg">
  <defs>
    <linearGradient id="pinkGradient" x1="0%" y1="0%" x2="100%" y2="100%">
      <stop offset="0%" style="stop-color:#FF6B9D;stop-opacity:1" />
      <stop offset="100%" style="stop-color:#C71585;stop-opacity:1" />
    </linearGradient>
  </defs>
  
  <!-- ê½ƒ ëª¨ì–‘ -->
  <g transform="translate(25, 25)">
    <path d="M0,-15 C5,-10 5,-5 0,0 C-5,-5 -5,-10 0,-15" fill="url(#pinkGradient)" transform="rotate(0)"/>
    <path d="M0,-15 C5,-10 5,-5 0,0 C-5,-5 -5,-10 0,-15" fill="url(#pinkGradient)" transform="rotate(72)"/>
    <path d="M0,-15 C5,-10 5,-5 0,0 C-5,-5 -5,-10 0,-15" fill="url(#pinkGradient)" transform="rotate(144)"/>
    <path d="M0,-15 C5,-10 5,-5 0,0 C-5,-5 -5,-10 0,-15" fill="url(#pinkGradient)" transform="rotate(216)"/>
    <path d="M0,-15 C5,-10 5,-5 0,0 C-5,-5 -5,-10 0,-15" fill="url(#pinkGradient)" transform="rotate(288)"/>
    <circle cx="0" cy="0" r="5" fill="#FFE4E1"/>
  </g>
  
  <!-- í…ìŠ¤íŠ¸ -->
  <text x="55" y="32" font-family="'Noto Sans KR', Arial, sans-serif" font-size="20" font-weight="bold" fill="url(#pinkGradient)">ë°”ë¡œê½ƒë°°ë‹¬</text>
</svg>

<!-- ë²„ì „ 3: ë¯¸ë‹ˆë©€ ë¼ì¸ ë¡œê³  -->
<svg id="logo-v3" width="180" height="50" viewBox="0 0 180 50" xmlns="http://www.w3.org/2000/svg">
  <!-- ê½ƒ ì•„ì´ì½˜ (ë¼ì¸ ìŠ¤íƒ€ì¼) -->
  <g transform="translate(25, 25)">
    <circle cx="0" cy="0" r="20" fill="none" stroke="#FF6B9D" stroke-width="2"/>
    <circle cx="0" cy="-8" r="6" fill="none" stroke="#FF6B9D" stroke-width="2"/>
    <circle cx="7" cy="-2.5" r="6" fill="none" stroke="#FF6B9D" stroke-width="2"/>
    <circle cx="4.3" cy="6.5" r="6" fill="none" stroke="#FF6B9D" stroke-width="2"/>
    <circle cx="-4.3" cy="6.5" r="6" fill="none" stroke="#FF6B9D" stroke-width="2"/>
    <circle cx="-7" cy="-2.5" r="6" fill="none" stroke="#FF6B9D" stroke-width="2"/>
    <circle cx="0" cy="0" r="4" fill="#FF6B9D"/>
  </g>
  
  <!-- í…ìŠ¤íŠ¸ -->
  <text x="55" y="32" font-family="Arial, sans-serif" font-size="20" font-weight="600" fill="#212529">ë°”ë¡œê½ƒë°°ë‹¬</text>
</svg>

<!-- ë²„ì „ 4: ëª¨ë˜ í”Œëž« ë¡œê³  -->
<svg id="logo-v4" width="200" height="50" viewBox="0 0 200 50" xmlns="http://www.w3.org/2000/svg">
  <defs>
    <linearGradient id="textGradient" x1="0%" y1="0%" x2="100%" y2="0%">
      <stop offset="0%" style="stop-color:#FF6B9D;stop-opacity:1" />
      <stop offset="100%" style="stop-color:#C71585;stop-opacity:1" />
    </linearGradient>
  </defs>
  
  <!-- ì‹¬í”Œí•œ ê½ƒ -->
  <g transform="translate(25, 25)">
    <rect x="-3" y="-12" width="6" height="24" rx="3" fill="#FF6B9D"/>
    <rect x="-3" y="-12" width="6" height="24" rx="3" fill="#FFC0CB" transform="rotate(45)"/>
    <rect x="-3" y="-12" width="6" height="24" rx="3" fill="#FF6B9D" transform="rotate(90)"/>
    <rect x="-3" y="-12" width="6" height="24" rx="3" fill="#FFC0CB" transform="rotate(135)"/>
  </g>
  
  <!-- í…ìŠ¤íŠ¸ -->
  <text x="55" y="28" font-family="Arial, sans-serif" font-size="18" font-weight="bold">
    <tspan fill="#FF6B9D">ë°”ë¡œ</tspan><tspan fill="#212529">ê½ƒë°°ë‹¬</tspan>
  </text>
  <text x="55" y="42" font-family="Arial, sans-serif" font-size="10" fill="#6C757D">BARO FLOWERS</text>
</svg>
